<svg xmlns="http://www.w3.org/2000/svg" class="index__icon__src-commonComponent-Item-" aria-hidden="true" viewBox="0 0 1024 1024"><g stroke="none" fill="#ffffff" stroke-width="1px"><path d="M800 128H224C134.4 128 64 198.4 64 288v448c0 89.6 70.4 160 160 160h576c89.6 0 160-70.4 160-160V288c0-89.6-70.4-160-160-160z m96 608c0 54.4-41.6 96-96 96H224c-54.4 0-96-41.6-96-96V288c0-54.4 41.6-96 96-96h576c54.4 0 96 41.6 96 96v448z" stroke="none" fill="#ffffff" stroke-width="1px"></path><path d="M240 384h64v64h-64zM368 384h384v64h-384zM432 576h352v64h-352zM304 576h64v64h-64z" stroke="none" fill="#ffffff" stroke-width="1px"></path></g></svg>